/* XPM */
static char *c64d0187cbaa4372bcebb7192b8d7d05VJoPJA0qnfUp8y4y[] = {
/* columns rows colors chars-per-pixel */
"64 64 44 1 ",
"  c None",
". c black",
"X c #454545",
"o c #4A4A4A",
"O c #6B6B6B",
"+ c #7D7D7D",
"@ c #E72F22",
"# c #E75D22",
"$ c #E75E22",
"% c #E76422",
"& c #E76622",
"* c #E76922",
"= c #E76A22",
"- c #E76E22",
"; c #E77222",
": c #E77522",
"> c #E77722",
", c #E77822",
"< c #E77F22",
"1 c #E78022",
"2 c #E78122",
"3 c #E78222",
"4 c #E78522",
"5 c #E78B22",
"6 c #E78C22",
"7 c #E79322",
"8 c #E79622",
"9 c #E79F22",
"0 c #E7A622",
"q c #E7A922",
"w c #E7B222",
"e c #E7B622",
"r c #E7BC22",
"t c #E7C322",
"y c #E6C521",
"u c #E7C422",
"i c #E7C522",
"p c #E6C622",
"a c #E7C622",
"s c #E7C722",
"d c #E7C822",
"f c #1298EB",
"g c #8C8C8C",
"h c #A6F6FD",
/* pixels */
"                                                                ",
"                                                                ",
"                                                                ",
"                                                                ",
"                                                                ",
"                                                                ",
"                                                                ",
"                              ip                                ",
"                              ppp i                             ",
"                             pdduii                             ",
"                             irwqqe                             ",
"                             976368                             ",
"                             22,*:4                             ",
"                             <;%$$:                             ",
"                             -%@@$*                             ",
"                             @@@@@@                             ",
"                             ......                             ",
"                            .++++++.                            ",
"                           .+++XX+++.                           ",
"   .                       .+++OO+++.                       .   ",
"   ..                      .+++OO+++.                      ..   ",
"   ..                      .+++OO+++.                      ..   ",
"   ..                      .g++OO++g.                      ..   ",
"   ...                    .+g++OO++g+.                    ...   ",
"  .XX.               .....g+g++OO++g+g.....               .XX.  ",
"  .g+g.             .ooooog+g++OO++g+gooooo.             .g+g.  ",
"  .g+g..............++++++XXXXXOOXXXXX++++++..............g+g.  ",
"  .g+gooooooooooooo+++++OXg+g++OO++g+gXO+++++ooooooooooooog+g.  ",
"  .g+g++++++XXXXXXXXOOXXXXXXg++OO++gXXXXXXOOXXXXXXXX++++++g+g.  ",
"  .OXOOOOOOOOOOOO++++++++Og+g++OO++g+gO++++++++OOOOOOOOOOOOXO.  ",
"  .+O+............++++++++g+g++++++g+g++++++++............+O+.  ",
"  .++X    X       .OOOOO++OXO++++++OXO++OOOOO.       X    X++.  ",
"  .XX.   XX        .....O++O++ffff++O++O.....        XX   .XX.  ",
"  .X.                  ..+++++ffff+++++..                  .X.  ",
"   ..                   ..O+++ffhf+++O..                   ..   ",
"   ..                    ..O++ffhf++O..                    ..   ",
"   ..                    X..++ffhf++..X                    ..   ",
"   ..                    X .++ffhf++. X                    ..   ",
"   .                    XX .O+ffhf+O. XX                    .   ",
"   .                        .OffhfO.                        .   ",
"                             .ffff.                             ",
"                             .ffff.                             ",
"                             .OffO.                             ",
"                             .+ff+.                             ",
"                             .++++.                             ",
"                             .++++.                             ",
"                             .O++O.                             ",
"                              .OO.                              ",
"                              .++.                              ",
"                              .++.                              ",
"                              .OO.                              ",
"                               ..                               ",
"                               ..                               ",
"                                                                ",
"                                                                ",
"                                                                ",
"                                                                ",
"                                                                ",
"                                                                ",
"                                                                ",
"                                                                ",
"                                                                ",
"                                                                ",
"                                                                "
};
