/* XPM */
static char *b90f44af43c641f0ef1d4dce5f2d321aDqNtQBxaG1gHgWzs[] = {
/* columns rows colors chars-per-pixel */
"64 64 138 2 ",
"   c #1B1D2D",
".  c #1C1E2E",
"X  c #1D1F2F",
"o  c #1E2030",
"O  c #1F2131",
"+  c #202333",
"@  c #212333",
"#  c #222434",
"$  c #232535",
"%  c #242737",
"&  c #252738",
"*  c #262838",
"=  c #272939",
"-  c #282A3A",
";  c #282B3B",
":  c #2A2C3D",
">  c #2B2D3D",
",  c #2C2F3F",
"<  c #2D3040",
"1  c #2E3041",
"2  c #2F3242",
"3  c #333546",
"4  c #333646",
"5  c #343747",
"6  c #353848",
"7  c #373A4B",
"8  c #383B4B",
"9  c #393C4C",
"0  c #3B3D4E",
"q  c #3B3E4F",
"w  c #3C3F50",
"e  c #343D58",
"r  c #353E59",
"t  c #363F5A",
"y  c #3D4050",
"u  c #3E4151",
"i  c #3F4253",
"p  c #37405B",
"a  c #38415C",
"s  c #39425C",
"d  c #39425D",
"f  c #3B445E",
"g  c #3B445F",
"h  c #3C4560",
"j  c #3D4661",
"k  c #3F4862",
"l  c #404354",
"z  c #424555",
"x  c #434656",
"c  c #434657",
"v  c #444758",
"b  c #404863",
"n  c #404964",
"m  c #414A64",
"M  c #535667",
"N  c #545868",
"B  c #555869",
"V  c #575B6C",
"C  c #585C6D",
"Z  c #595C6D",
"A  c #5B5F70",
"S  c #5C6071",
"D  c #5D6172",
"F  c #5F6374",
"G  c #5D6C9A",
"H  c #5E6D9B",
"J  c #5F6E9B",
"K  c #606E9C",
"L  c #606F9C",
"P  c #616F9D",
"I  c #62709E",
"U  c #63729F",
"Y  c #64729F",
"T  c #7A7F90",
"R  c #6573A0",
"E  c #6674A0",
"W  c #6977A3",
"Q  c #6978A3",
"!  c #6C7BA6",
"~  c #6D7CA6",
"^  c #6E7CA8",
"/  c #6F7EAA",
"(  c #707EA9",
")  c #707FA9",
"_  c #7B8091",
"`  c #7E8394",
"'  c #7F8495",
"]  c #7180AA",
"[  c #7786B1",
"{  c #7887B2",
"}  c #7A89B3",
"|  c #7B8BB5",
" . c #7C8BB5",
".. c #7C8BB6",
"X. c #808496",
"o. c #828798",
"O. c #84889A",
"+. c #8494BE",
"@. c #8696BF",
"#. c #8696C0",
"$. c #8796C0",
"%. c #8798C1",
"&. c #8A9BC3",
"*. c #8C9CC6",
"=. c #8E9EC7",
"-. c #8FA0C9",
";. c #91A1CA",
":. c #93A4CD",
">. c #94A5CE",
",. c #96A6CF",
"<. c #97A7CF",
"1. c #97A7D0",
"2. c #97A8D0",
"3. c #98A8D0",
"4. c #9AAAD1",
"5. c #9BABD2",
"6. c #9CACD2",
"7. c #9CACD3",
"8. c #9DACD3",
"9. c #9EADD4",
"0. c #A0AFD5",
"q. c #A0B0D5",
"w. c #A3B2D7",
"e. c #A4B3D7",
"r. c #A5B4D8",
"t. c #A6B4D8",
"y. c #A7B5D9",
"u. c #A8B6DA",
"i. c #A8B7DA",
"p. c #C1CCE8",
"a. c #C1CDE8",
"s. c #D0DBF1",
"d. c #E5ECFF",
"f. c #E9F0FF",
"g. c #E9F1FF",
"h. c #EAF1FF",
"j. c #EAF2FF",
"k. c #F1F5FF",
/* pixels */
"            . . . . . . . . . . o o o o o o X + o o + % O # # O # # # O # O # o + + + + . + . o . . . .   . . . . . . .         ",
"        . . . . . . . . . o . o o X o o o # + + + $ @ @ # # # % # # % # # # # # + $ + + + + + o + . X + o . . . . . .           ",
"        e e e e e e p p p p p e s p s s a s g g s s g g h h h f h h h h f h h h a g a s s f s s a t t t t t t t t e e e . .     ",
"      . e e e e e e p e e e p a s s s s j s a j g g g b h f k k h h h h h h h h g j g f s s s s h t t t t t t t e t t e . . .   ",
"    e e e e p e e e f e p p p a a f s f a h f j b j g b k k k k j k j m k k k k g j g j g g g g a f a t t t t t t t t e e e   . ",
"  . e e e e e e s s e a a a a a a a g g j h j k b b k k k k k b m m m j k k k k b b j g g g g g f t f t f t t t t t e e t e . . ",
"  . e e e e p p e s a e a a # # # & & & - - - - - - > > , , 1 , 1 1 < > > < < > > - > - - % % % & % @ $ f t t t t t t t t e . . ",
"  . e e p e p e e e a a f a % % & & & = - - - > , > , 1 1 1 1 1 1 1 < < < < < < > > > - - - - = % % $ @ s s f t t t t t t t . . ",
"  X p e e e e p a a G J o % d.d.d.d.d.d.d.d.d.d.d.d.d.d.d.d.d.d.d.d.d.d.d.d.d.d.d.d.d.d.d.d.d.d.d.d.d.d.% + G G t t t t t t . . ",
"X   e e p p p a a a J J # & d.d.d.d.d.d.d.d.d.d.d.d.d.d.d.d.d.d.d.d.d.d.d.d.d.d.d.d.d.d.d.d.d.d.d.d.d.d.% + G K f t t t t t . . ",
"  X e p p p a a L J J J P P P P R I I R Q R W W ~ | ;.,.<.,.<.<.<.<.,.,.,.,.,.>.;.| Q E E E Y Y Y P P P L L L K P G e t t t . . ",
"X   e p e p p s J J J J I P P R R E E W W W ) &.,.1.<.2.<.2.3.<.2.3.3.2.2.2.,.1.1.1.1.&.) Q Q I Y E Y P L K P P K G a t t t . o ",
"    p p p p s s # # P I I I R R R W W W 3 5 7 8 q q q q u u i i u u u z u u u w q 7 7 3 3 7 ! Q W Y W Y P P P P $ $ s t t t # o ",
"X o p e s a s s # # I I I I R R R W W } 7 7 q q q u u i z z c c c v v z z z u u u q q q 8 3 >.{ W Y Y Y Y P P P d.d.@ + a t o . ",
"X X p p p a # # d.d.I I R R R Q Q ~ 5 8 d.d.d.d.d.d.d.d.d.d.d.d.d.d.d.d.d.d.d.d.d.d.d.d.d.d.8 4 @.W W Y W Y Y P d.d.@ $ a t o o ",
"X o p p f a # % d.d.I I R R W Q Q =.8 8 d.d.d.d.d.d.d.d.d.d.d.d.d.d.d.d.d.d.d.d.d.d.d.d.d.d.8 8 <.=.W W Y Y Y P d.d.$ $ f a + o ",
"X o s p a s % % d.d.Y Y Q R W ! ;.,.3.3.8.6.6.8.9.9.q.9.q.e.q.q.q.q.q.q.q.q.q.8.9.9.8.8.3.3.3.3.<.<.-.W R Y R Y d.d.% # s s + + ",
"o o p s a j % % d.d.Y Y W W ! =.<.,.3.<.6.8.8.8.q.q.q.e.w.w.w.t.t.t.t.e.e.e.q.q.q.9.8.8.8.8.3.3.<.<.<.&.W Q R Y d.d.& & s s % . ",
"o + a s a g % % d.d.Y Y R Q 5 8 3.3.8.6.9.8.q.q.q.q.N B V V V V F V B Z Z Z N M q.q.q.q.q.9.8.2.3.3.8 3 @.E Y Y d.d.& & s s + X ",
"o o a f g g % - d.d.Q Q Q } 8 0 3.3.8.8.9.q.q.q.t.t.V Z S S F F F F F F F Z Z Z t.t.q.q.9.9.9.2.8.3.8 5 ,.} Q Y d.d.- & g s @ % ",
"+ + s g g j - - d.d.I Q 3 7 d.d.3.3.8.9.q.q.e.e.V V d.d.d.d.d.d.d.d.d.d.d.d.d.d.Z V q.e.q.q.9.8.8.3.d.d.5 5 Q W d.d.= = b g % @ ",
"o + s s g g - - d.d.Q Q 3 7 d.d.9.9.8.0.q.q.e.t.S F d.d.d.d.d.d.d.d.d.d.d.d.d.d.F A e.e.q.q.q.9.8.3.d.d.8 5 @.Q d.d.- = g s $ @ ",
"+ + g g g j - > d.d.Q ] 7 q d.d.8.8.q.q.q.q.t.u.t.a.g.h.h.h.h.h.h.h.h.h.h.h.h.h.p.u.u.e.q.e.q.q.8.3.d.d.q 3 ,./ d.d.- - b s @ $ ",
"+ + s g b g - > d.d.Q &.7 q d.d.8.9.q.q.t.u.t.u.s.h.h.h.h.h.h.h.h.h.h.h.h.h.h.h.h.s.u.y.t.e.e.q.q.8.d.d.q 7 ,.%.d.d.> = b g $ @ ",
"+ + g g f m > > d.d.! ,.q u d.d.8.q.q.t.Z F t.s.h.h.h.h.h.h.g.g.h.h.h.h.h.h.h.h.h.h.s.i.V V q.q.q.6.d.d.q 7 ,.>.d.d.> - b b + % ",
"+ + g g j k > 1 d.d.| ,.w u d.d.q.q.q.e.V F a.h.h.h.h.h.g.g.g.g.h.h.h.f.h.g.h.h.h.h.h.a.F Z t.q.q.8.d.d.u q ,.>.d.d.> - j g - + ",
"+ $ g g k b > > d.d.;.,.w u d.d.q.q.B Z d.d.h.h.h.h.h.h.g.g.T _ T ` T T g.g.g.h.h.h.h.g.d.d.V M q.q.d.d.u y ,.,.d.d., > b g % $ ",
"+ + g b j b > 1 d.d.,.2.u u d.d.q.q.B S d.d.h.h.h.h.h.h.h.h.` ' ` ` ` ` g.g.g.g.h.h.h.h.d.d.Z B q.9.d.d.u y ,.,.d.d., > b b = + ",
"+ $ g j k j > 1 d.d.,.2.u z d.d.q.e.V A d.d.h.h.h.h.g.g.g.g.h.h.' X.h.h.g.h.h.h.g.h.h.h.d.d.S V q.q.d.d.z u 1.,.d.d.< : v k % % ",
"+ % g j b b 1 1 d.d.<.3.u z d.d.q.t.V F d.d.h.h.h.h.g.g.g.g.h.h.O.O.d.h.d.h.g.g.g.h.h.h.d.d.S V t.q.d.d.z u 1.1.d.d.1 < k k = % ",
"+ $ g j m m 1 1 d.d.,.3.z c d.d.q.q.Z F d.d.h.h.h.g._ ' g.h.h.d.k.k.d.h.h.d.` T h.h.h.h.d.d.Z Z t.q.d.d.z i 1.,.d.d.1 < m j % % ",
"+ $ x j j m 1 1 d.d.<.3.u v d.d.e.t.Z F d.d.h.h.h.g._ ' g.d.h.h.k.k.g.h.h.h.` _ h.h.h.h.d.d.F Z t.q.d.d.z u 1.,.d.d.1 1 m j % % ",
"# # f k k m 1 2 d.d.3.3.z v d.d.q.e.Z F d.d.h.h.h.h.` X.O.O.k.k.k.k.k.k.O.o.' ` g.g.h.h.d.d.F Z e.q.d.d.v u 3.,.d.d.1 , m k = + ",
"# # h h k k , 1 d.d.3.3.l v d.d.q.e.S F d.d.h.h.h.h._ ` o.O.k.j.k.k.k.j.O.O.' _ g.g.h.h.d.d.F Z e.q.d.d.z l 3.2.d.d.1 , m b - % ",
"o % f h k m 1 1 d.d.<.3.l z d.d.q.t.A F d.d.h.h.h.h._ ` j.h.h.d.k.k.h.h.h.d.` _ g.g.h.h.d.d.S Z t.e.d.d.v u 3.<.d.d.1 , m b % % ",
"# # k k k m 1 1 d.d.<.3.l x d.d.q.e.Z S d.d.h.h.g.h.` ` h.h.h.h.k.k.h.h.h.h.` T h.h.h.h.d.d.F V q.q.d.d.z u 1.<.d.d.1 > m g % % ",
"# # h k k k 1 1 d.d.<.<.u x d.d.q.q.Z F d.d.h.h.h.g.g.g.g.g.g.h.o.o.d.g.h.h.h.h.h.h.h.h.d.d.S V t.q.d.d.z z 3.,.d.d.5 > m g - % ",
"o # h h k k > 1 d.d.<.3.u z d.d.q.i.V F d.d.h.h.h.g.g.g.g.g.g.d.o.o.h.h.h.h.g.g.h.h.h.h.d.d.S V q.q.d.d.z q ,.,.d.d.: > b j = % ",
"# # f k k k > 1 d.d.,.<.0 z d.d.q.q.M A d.d.h.h.h.h.g.g.g.g.' ' X.` ' ` g.g.g.g.h.h.h.h.d.d.Z B q.q.d.d.u q 3.,.d.d.> > b j % % ",
"o # a h b b > > d.d.<.<.q l d.d.q.q.N V d.d.g.h.h.h.h.g.g.g._ _ _ ` _ T g.g.g.h.h.h.h.h.d.d.V M q.q.d.d.l q ,.,.d.d.< > b g % # ",
"o # d j j k > , d.d.;.,.q u d.d.q.q.e.e.Z F p.h.h.h.h.h.h.h.h.g.h.h.h.h.h.h.h.h.h.j.j.p.F V t.e.0.0.d.d.0 8 ,.,.d.d.> : g j % % ",
"O # d h j k ; 1 d.d.| ,.q u d.d.8.q.q.e.B F t.s.j.h.h.h.h.h.h.h.h.h.g.h.h.h.h.h.j.j.s.i.S Z q.q.0.8.d.d.u 7 ,.:.d.d.: : b g % $ ",
"O = h h j k ; > d.d.! ,.7 q d.d.9.q.q.q.e.t.u.u.s.h.h.h.h.h.h.h.h.h.h.h.h.h.h.h.j.s.i.t.t.q.q.q.8.8.d.d.0 8 ,.,.d.d.: - b f + $ ",
"# O d d h f ; ; d.d.W &.7 8 d.d.8.8.0.0.e.e.t.u.t.a.h.h.j.h.h.h.h.h.h.h.h.h.h.h.a.t.i.t.t.q.q.9.8.8.d.d.8 8 ,.@.d.d.: - g f % + ",
"O O a j h h ; > d.d.Q ) 5 7 d.d.2.9.9.9.q.q.t.t.S F d.d.d.d.d.d.d.d.d.d.d.d.d.d.F Z t.e.q.q.9.9.8.8.d.d.8 5 :.( d.d.- - j f % + ",
"O o a f h h = ; d.d.W W 3 7 d.d.3.6.6.9.9.q.e.e.V Z d.d.d.d.d.d.d.d.d.d.d.d.d.d.Z Z t.q.q.q.9.9.8.,.d.d.5 3 @.W d.d.- * g f $ + ",
"O O d s h a = = d.d.R W Q ,.7 q 3.9.8.8.8.0.q.q.t.t.B F Z F F F F F F F F F V V t.t.q.q.9.9.6.6.3.<.q 7 ,.:.! Y d.d.- % h f + + ",
"O O a a a h % = d.d.Y R W } 5 q 3.3.1.8.9.q.q.9.q.q.B B B Z Z Z V A Z V B B B M q.q.q.9.9.9.2.6.3.,.7 5 :.{ W Y d.d.* % a f + + ",
"o O d a a j + % d.d.E E Q Q @.,.,.3.3.8.3.9.q.9.8.q.q.q.t.q.t.u.e.u.q.u.q.e.q.q.q.q.9.6.6.6.2.1.3.<.<.,.@.R R U d.d.= % a p # o ",
"o o a a a g # - d.d.Y Y E Q Q =.,.1.3.3.3.8.6.8.9.q.q.q.q.q.q.q.q.q.e.q.q.q.q.q.9.9.9.6.6.6.2.,.3.<.>.&.Q R R U d.d.% # a f # o ",
"o X a a s s + ; d.d.I Y R R R ! =.1.8 7 d.d.d.d.d.d.d.d.d.d.d.d.d.d.d.d.d.d.d.d.d.d.d.d.d.d.7 7 ,.,.=.Y R R I I d.d.% # f p o o ",
"    p a p f + + d.d.I I R R R Q Q =.5 7 d.d.d.d.d.d.d.d.d.d.d.d.d.d.d.d.d.d.d.d.d.d.d.d.d.d.7 3 >.-.Q Y U R I I d.d.# # p f o o ",
"  o e p p p s s # % L I I R E R W W @.,.7 8 q q u u u z z z z z z z x z z z l y u q q q 7 7 1.>.+.Y E R R I I I = # s s p p X X ",
".   p p p p d a # # L I I I R R W R R } 3 4 7 7 8 0 0 y u u z u l l u z y y y q q q 7 7 3 3 :.[ Q Y E I I I L J # + s p f p X X ",
". . a p p p p a J J J L I I I I E Q Y Q Q @.<.,.,.,.,.3.3.2.3.2.3.3.3.3.<.<.,.,.,.,.,.,.1.#.E R Y E I E I I L L L L p p p p X X ",
". . p e e p p a J J L H L I I I I E Y Q I Q ] @.,.,.,.,.,.<.<.<.3.3.,.,.,.,.,.>.,.>.>.@./ Q E R E Y I I I L L H J J p p p p X   ",
". . p e p e e p p p J J # % d.d.d.d.d.d.d.d.d.d.d.d.d.d.d.d.d.d.d.d.d.d.d.d.d.d.d.d.d.d.d.d.d.d.d.d.d.d.% # G J p p p e p p     ",
". . e e e p p p p a J J + # d.d.d.d.d.d.d.d.d.d.d.d.d.d.d.d.d.d.d.d.d.d.d.d.d.d.d.d.d.d.d.d.d.d.d.d.d.d.# o J J a p p e p e X   ",
". . e p e p e p p p a a a a # # = % = - = - > > , , 1 , , 1 3 , 5 < < 1 1 , 1 > < > > ; = = = = - % # # h a a a p e p p p e     ",
". . e e e e p s p e p a f a # % $ $ % - = = = - > > > > > , , , > > < > , 1 > > ; > ; : = = # = # + + + f a a p p p e p e p   o ",
".   . . e e e e p e e p p a a a g f g g b b g b g b b k k k b m m b b b b k b b j m h j h h g g f s s s p p p e e p e e       o ",
"    . . e e p e e p p p s p p f s g s g s g g g g b g k b g b k b k b g b b k k j h h h h h v g s g s s p p p p p e p p   o     ",
"      . . . . . . . X X o o + X $ o $ $ + % $ % + = - % - - = = = = - = = - % = % % % % O # @ + + + o + o o o o     o       o   ",
"        . . . . . . . X o o o o o o o o + $ + $ $ $ + % = + + % % % - # + & # + # # # # # O + + o + X X o o     o       o       "
};
