/* XPM */
static char *fcdc8c61d622437cdaee614d6f2baad3J5KCPZtrtOAz5vAI[] = {
/* columns rows colors chars-per-pixel */
"64 64 2 1 ",
"  c #1A1C2C",
". c #333C57",
/* pixels */
"                                                                ",
"                                                                ",
"    ..........................      ..........................  ",
"    ..........................      ..........................  ",
"  ..............................  ..............................",
"  ..............................  ..............................",
"  ..............................  ..............................",
"  ..............................  ..............................",
"  ..............................  ..............................",
"  ..............................  ..............................",
"  ..............................  ..............................",
"  ..............................  ..............................",
"  ..............................  ..............................",
"  ..............................  ..............................",
"  ..............................  ..............................",
"  ..............................  ..............................",
"  ..............................  ..............................",
"  ..............................  ..............................",
"  ..............................  ..............................",
"  ..............................  ..............................",
"  ..............................  ..............................",
"  ..............................  ..............................",
"  ..............................  ..............................",
"  ..............................  ..............................",
"  ..............................  ..............................",
"  ..............................  ..............................",
"  ..............................  ..............................",
"  ..............................  ..............................",
"  ..............................  ..............................",
"  ..............................  ..............................",
"    ..........................      ..........................  ",
"    ..........................      ..........................  ",
"                                                                ",
"                                                                ",
"    ..........................      ..........................  ",
"    ..........................      ..........................  ",
"  ..............................  ..............................",
"  ..............................  ..............................",
"  ..............................  ..............................",
"  ..............................  ..............................",
"  ..............................  ..............................",
"  ..............................  ..............................",
"  ..............................  ..............................",
"  ..............................  ..............................",
"  ..............................  ..............................",
"  ..............................  ..............................",
"  ..............................  ..............................",
"  ..............................  ..............................",
"  ..............................  ..............................",
"  ..............................  ..............................",
"  ..............................  ..............................",
"  ..............................  ..............................",
"  ..............................  ..............................",
"  ..............................  ..............................",
"  ..............................  ..............................",
"  ..............................  ..............................",
"  ..............................  ..............................",
"  ..............................  ..............................",
"  ..............................  ..............................",
"  ..............................  ..............................",
"  ..............................  ..............................",
"  ..............................  ..............................",
"    ..........................      ..........................  ",
"    ..........................      ..........................  "
};
