/* XPM */
static char *_1674837028[] = {
/* columns rows colors chars-per-pixel */
"64 64 16 1 ",
"  c None",
". c black",
"X c gray15",
"o c gray26",
"O c #585858",
"+ c gray42",
"@ c gray49",
"# c #8D8D8D",
"$ c gray61",
"% c #AAAAAA",
"& c gray72",
"* c #C5C5C5",
"= c #DDDDDD",
"- c #E9E9E9",
"; c #F4F4F4",
": c white",
/* pixels */
"                                                                ",
"                                                                ",
"                                                                ",
"                                                                ",
"                                                                ",
"                                                                ",
"                                                                ",
"                                                                ",
"                                                                ",
"                                                                ",
"                                                                ",
"                                                                ",
"                                                                ",
"                                                                ",
"                                                                ",
"                        ...............                         ",
"                       ..................                       ",
"                      ...................                       ",
"                      ...-::::::::::::#..                       ",
"                      ...-::::::::::::#..                       ",
"                      ...-::::::::::::#..                       ",
"                      ...-::::::::::::#..                       ",
"                      ..........%:::::#..                       ",
"                       .........=:::::O..                       ",
"                        .......X::::::...                       ",
"                             ..@:::::=...                       ",
"                             ..$:::::%...                       ",
"                            ...*:::::$..                        ",
"                            ...;:::::O..                        ",
"                            ..O::::::X..                        ",
"                            ..$:::::=...                        ",
"                           ...*:::::&...                        ",
"                           ...=:::::$..                         ",
"                           ..X::::::+..                         ",
"                           ..@::::::X..                         ",
"                          ...%:::::=...                         ",
"                          ...=:::::*...                         ",
"                          ..X::::::$..                          ",
"                          ..O::::::@..                          ",
"                          ..$::::::X..                          ",
"                         ...*:::::;...                          ",
"                         ...;:::::*...                          ",
"                         ..O::::::$..                           ",
"                         ..$::::::@..                           ",
"                        ...%::::::o..                           ",
"                        ...=:::::;...                           ",
"                        .............                           ",
"                         ...........                            ",
"                          .........                             ",
"                                                                ",
"                                                                ",
"                                                                ",
"                                                                ",
"                                                                ",
"                                                                ",
"                                                                ",
"                                                                ",
"                                                                ",
"                                                                ",
"                                                                ",
"                                                                ",
"                                                                ",
"                                                                ",
"                                                                "
};
