/* XPM */
static char *fb565cd909584e6fb6714dd567cc7a625vyDzrIWvyvmX2hk[] = {
/* columns rows colors chars-per-pixel */
"64 64 206 2 ",
"   c None",
".  c #000000",
"X  c #010101",
"o  c #020202",
"O  c #030303",
"+  c #040404",
"@  c #050505",
"#  c #060606",
"$  c #070707",
"%  c #080808",
"&  c #090909",
"*  c #0A0A0A",
"=  c #0B0B0B",
"-  c #0C0C0C",
";  c #0D0D0D",
":  c #101010",
">  c #111111",
",  c #131313",
"<  c #141414",
"1  c #161616",
"2  c #171717",
"3  c #191919",
"4  c #1A1A1A",
"5  c #1B1B1B",
"6  c #1C1C1C",
"7  c #1E1E1E",
"8  c #1F1F1F",
"9  c #202020",
"0  c #212121",
"q  c #222222",
"w  c #242424",
"e  c #252525",
"r  c #272727",
"t  c #282828",
"y  c #292929",
"u  c #2A2A2A",
"i  c #2B2B2B",
"p  c #2C2C2C",
"a  c #2E2E2E",
"s  c #2F2F2F",
"d  c #303030",
"f  c #313131",
"g  c #323232",
"h  c #333333",
"j  c #343434",
"k  c #353535",
"l  c #363636",
"z  c #383838",
"x  c #3A3A3A",
"c  c #3B3B3B",
"v  c #3D3D3D",
"b  c #3E3E3E",
"n  c #3F3F3F",
"m  c #414141",
"M  c #424242",
"N  c #434343",
"B  c #444444",
"V  c #454545",
"C  c #474747",
"Z  c #484848",
"A  c #494949",
"S  c #4A4A4A",
"D  c #4B4B4B",
"F  c #4D4D4D",
"G  c #4F4F4F",
"H  c #505050",
"J  c #515151",
"K  c #525252",
"L  c #535353",
"P  c #545454",
"I  c #555555",
"U  c #565656",
"Y  c #575757",
"T  c #585858",
"R  c #5A5A5A",
"E  c #5B5B5B",
"W  c #5E5E5E",
"Q  c #5F5F5F",
"!  c #606060",
"~  c #616161",
"^  c #626262",
"/  c #636363",
"(  c #646464",
")  c #666666",
"_  c #676767",
"`  c #686868",
"'  c #696969",
"]  c #6A6A6A",
"[  c #6B6B6B",
"{  c #6C6C6C",
"}  c #6D6D6D",
"|  c #6E6E6E",
" . c #6F6F6F",
".. c #707070",
"X. c #717171",
"o. c #727272",
"O. c #737373",
"+. c #747474",
"@. c #757575",
"#. c #797979",
"$. c #7B7B7B",
"%. c #7C7C7C",
"&. c #7E7E7E",
"*. c #808080",
"=. c #818181",
"-. c #848484",
";. c #858585",
":. c #868686",
">. c #878787",
",. c #8A8A8A",
"<. c #8D8D8D",
"1. c #8E8E8E",
"2. c #909090",
"3. c #919191",
"4. c #929292",
"5. c #949494",
"6. c #959595",
"7. c #969696",
"8. c #979797",
"9. c #989898",
"0. c #999999",
"q. c #9A9A9A",
"w. c #9C9C9C",
"e. c #9D9D9D",
"r. c #9F9F9F",
"t. c #A0A0A0",
"y. c #A1A1A1",
"u. c #A3A3A3",
"i. c #A5A5A5",
"p. c #A6A6A6",
"a. c #A7A7A7",
"s. c #A8A8A8",
"d. c #A9A9A9",
"f. c #ABABAB",
"g. c #ACACAC",
"h. c #ADADAD",
"j. c #AEAEAE",
"k. c #B2B2B2",
"l. c #B4B4B4",
"z. c #B5B5B5",
"x. c #B6B6B6",
"c. c #B7B7B7",
"v. c #B8B8B8",
"b. c #B9B9B9",
"n. c #BABABA",
"m. c #BBBBBB",
"M. c #BCBCBC",
"N. c #BDBDBD",
"B. c #BEBEBE",
"V. c #BFBFBF",
"C. c #C0C0C0",
"Z. c #C1C1C1",
"A. c #C2C2C2",
"S. c #C3C3C3",
"D. c #C4C4C4",
"F. c #C6C6C6",
"G. c #C7C7C7",
"H. c #C8C8C8",
"J. c #C9C9C9",
"K. c #CCCCCC",
"L. c #CDCDCD",
"P. c #CECECE",
"I. c #CFCFCF",
"U. c #D0D0D0",
"Y. c #D1D1D1",
"T. c #D2D2D2",
"R. c #D5D5D5",
"E. c #D6D6D6",
"W. c #D7D7D7",
"Q. c #D8D8D8",
"!. c #D9D9D9",
"~. c #DADADA",
"^. c #DBDBDB",
"/. c #DCDCDC",
"(. c #DDDDDD",
"). c #DFDFDF",
"_. c #E1E1E1",
"`. c #E2E2E2",
"'. c #E3E3E3",
"]. c #E4E4E4",
"[. c #E5E5E5",
"{. c #E7E7E7",
"}. c #E8E8E8",
"|. c #E9E9E9",
" X c #EAEAEA",
".X c #EBEBEB",
"XX c #ECECEC",
"oX c gray93",
"OX c #EEEEEE",
"+X c #EFEFEF",
"@X c #F0F0F0",
"#X c #F1F1F1",
"$X c #F2F2F2",
"%X c #F3F3F3",
"&X c #F4F4F4",
"*X c #F5F5F5",
"=X c #F6F6F6",
"-X c #F7F7F7",
";X c #F8F8F8",
":X c #F9F9F9",
">X c #FAFAFA",
",X c #FBFBFB",
"<X c #FCFCFC",
"1X c #FDFDFD",
"2X c #FEFEFE",
"3X c #FFFFFF",
/* pixels */
"                                                                                                                                ",
"                                                                                                                                ",
"                                                                                                                                ",
"                                                                                                                                ",
"                                                                                                                                ",
"                                                                                                                                ",
"                                                                                                                                ",
"                                                                                                                                ",
"                                                                                                                                ",
"                                                                                                                                ",
"                                                                                                                                ",
"                                                                                                                                ",
"                                                                                                                                ",
"                                                              v.v.                                                              ",
"                                                          E.3X3X3X3XP.                                                          ",
"                                                      ~.3X3X3X&X XoX3X3XE.                                                      ",
"                                                  ~.3X_.y.(. X_.E.~.~.y._.3X(.                                                  ",
"                                            ,.[.3XE.4.V L oXs.P.J.q.@XL h o.Y.3X[.,.                                            ",
"                                        q.oX3XP./ 7 o.G w.@XS F.S.n @Xy.. . 7 } Y.3XoXq.                                        ",
"                                    i.@X3XF.( y 2 . r S oXq.* M.M.. q.oXs 5 o.r > @.J.3X@Xi.                                    ",
"                                  oX3X(.o.0 . T o.@ . 4.@Xm @ M.M.. s @X4.> L 5 r 4.h / F.3XoX                                  ",
"                                c.3X3XP.} h * 5 r . h @X6.U E M.M.h m q.@Xh . . - G l U 6.,X3Xc.                                ",
"                                  3X3X3X3X_.k.$.m V F.oXl h h S.S.U / l @XF.V V &.s.(.,X3X3X3X                                  ",
"                                  Y.3X4.o.w.J. X,X&X3X X} 0 r E.E.s y } [.3X&X,X XJ.q.o.1.3XY.                                  ",
"                                    3X=.2 . @ r $. X&X3X@X~.~.3X3X~.E.&X3X&XoX$.r @ @ 2 =.3X                                    ",
"                                    _.~.0 x L . . y.,X@.} i.~.3X3XE.i.} @.,Xy.. . . . 0 ~._.                                    ",
"                                    >.3X/ n ( * . >. Xy s 5 y _.~.r * > 0  X>.. > G 2 / 3X>.                                    ",
"                                       XF.- * > . /  XS &.V . S.M.. S ' m  X/ . 7 >.x S. X                                      ",
"                                      6.3XV 2 >.s y  X( - - . v.v.. r h '  Xy . . * G 3X6.                                      ",
"                                        &Xs.> m 5 @ ~.>.. . . v.c.0 ' . =.(.s 7 . . s.@X                                        ",
"                                        i.&Xh . . . M.k.. . . v.k.r o.* j.M.} } . h &Xi.                                        ",
"                                          3X6.. . . &.[.5 S ' S.c.. . 2 [.&.> 5 . 6.3X                                          ",
"                                          c.oXy . . S &Xh y n M.c.r h s &XS . . y oXc.                                          ",
"                                            3X4.. @ h @XU . . c.v.L / T oXL L > 1.3X                                            ",
"                                            S. XV ( x P.6.h S M.c.. @ 6.P.n ( m  XS.                                            ",
"                                              3Xq.U 7 y.S.m U S.v.. @ S.i.@ . ,.3X                                              ",
"                                              P._.7 . >.~.2 . c.F./ V ~.>.. 7 _.P.                                              ",
"                                                3X} . G  Xn . c.S.S (  XG . o.3X                                                ",
"                                                ~.Y.- 5  X' . v.v.. (  X5 - P.~.                                                ",
"                                                =.3XU . ~.1.. v.v.. ,.~.. U 3X=.                                                ",
"                                                   XM.@ i.S.. v.v.. S.i.@ M. X                                                  ",
"                                                  4.3XL '  X- c.c.>  X' G 3X4.                                                  ",
"                                                    oXk.E @Xh k.k.s @X/ k.@X                                                    ",
"                                                    w.,X=. X/ c.c./  X&.,Xw.                                                    ",
"                                                      &XS.~.q.v.c.6.~.S.&X                                                      ",
"                                                      j.@X[.M.F.S.v.[.@Xj.                                                      ",
"                                                        &X,XE.~.E.P.,X&X                                                        ",
"                                                        c.3X@X,X,X,X3Xc.                                                        ",
"                                                          ,X3X3X3X3X,X                                                          ",
"                                                          j.3X3X3X3Xi.                                                          ",
"                                                            v.3X,Xj.                                                            ",
"                                                                                                                                ",
"                                                                                                                                ",
"                                                                                                                                ",
"                                                                                                                                ",
"                                                                                                                                ",
"                                                                                                                                ",
"                                                                                                                                ",
"                                                                                                                                ",
"                                                                                                                                ",
"                                                                                                                                ",
"                                                                                                                                ",
"                                                                                                                                ",
"                                                                                                                                "
};
