/* XPM */
static char *c884b7fe907b44ce80e9b879b6b7b48esqjWLF40u9pLDNEO[] = {
/* columns rows colors chars-per-pixel */
"64 64 29 1 ",
"  c None",
". c black",
"X c #1D1D1F",
"o c #201F1C",
"O c #25232C",
"+ c #27252F",
"@ c #2C2D2F",
"# c #292732",
"$ c #2E2B31",
"% c #2B2935",
"& c #2D2A38",
"* c #312D3C",
"= c #36373A",
"- c #693E30",
"; c #7E5825",
": c #392572",
"> c #462C54",
", c #402C78",
"< c #683B6D",
"1 c #545256",
"2 c #6A6C72",
"3 c #E18842",
"4 c #E6A143",
"5 c #D8A078",
"6 c #4B3098",
"7 c #6A3CB8",
"8 c #7F43E6",
"9 c #F8D0B8",
"0 c #E8E8F8",
/* pixels */
"                                                                ",
"                                                                ",
"                                                                ",
"                                                                ",
"                                                                ",
"                                                                ",
"                                                                ",
"                                                                ",
"                                                                ",
"                                                                ",
"                                                                ",
"                                                                ",
"                                                                ",
"                                                                ",
"                                                                ",
"                          ++++++++++++                          ",
"                      :::++++++++++++++:::                      ",
"                     ::::OOOOOOOOOOOOOO::::                     ",
"                    :,,%%&************&%%,,:                    ",
"                   ::,%%****************%%,::                   ",
"                   ..&********************&..                   ",
"                   ..&********************&..                   ",
"                 ..++%********************%++..                 ",
"                 ..++%********************%++..                 ",
"                 ==,,O%******************%O,,==                 ",
"                .==,,+O******************O+,,==.                ",
"                .==66+O&****************&O+66==.                ",
"                .==66++%%**************%%++66@=.                ",
"                .==66++#%&************&%#++66@=.                ",
"                .@=66++++O%%%******%%%O++++66@=.                ",
"                .@=66,++++++%&****&%++++++,66==.                ",
"                .===6,,++++++OOOOOO++++++,,6===.                ",
"                .=@..666,++++++++++++++,666..=@.                ",
"                .=@=.=666,,++++++++++,,666=.==@.                ",
"                .==2===,,66666666666666,,===2==.                ",
"                .===2===@,666666666666,=@==2===.                ",
"                .==@=2=====--555555--=====2====.                ",
"                .==@==2@===--555555--===@2=====.                ",
"                .==XX.=@=00339999993300=@=.XX==.                ",
"                ..=XX..=5003399999933005=..XX=..                ",
"                ...XX..559999999999999955..XX...                ",
"                 ..XX..559999999999999955..XX..                 ",
"                 ..XX..--55999955999955--..XX..                 ",
"                 ..XX..--55999955999955--..XX..                 ",
"                  .....22..--555555--..22.....                  ",
"                  .....22..--555555--..22.....                  ",
"                 ....88$$..11<<<<<<11..$$88....                 ",
"                 ....88$$..11<<<<<<11..$$88....                 ",
"                .994799..$$11<<<<<<11$$..99oo99;;               ",
"                .994499..$$11<<<<<<11$$..99oo994;               ",
"                .9999..$$..11>><<>>11..$$..9999..               ",
"                .9999..$$..11>>>>>>11..$$..9999.                ",
"                 ......$$4oooooo44444oo$$......                 ",
"                     ..$$44oo444oooooo$$$..                     ",
"                      ....;o;ooooooooo....                      ",
"                      .....;ooooooooo.....                      ",
"                      .o;;o..........o;;o.                      ",
"                      .;oo;..........;oo;.                      ",
"                      ......        ......                      ",
"                       ....          ....                       ",
"                                                                ",
"                                                                ",
"                                                                ",
"                                                                "
};
