/* XPM */
static char *f34482f4ecb44c72a43c104d442c524bjUcELGTzEMvqIHP4[] = {
/* columns rows colors chars-per-pixel */
"64 64 240 2 ",
"   c None",
".  c #000000",
"X  c #010101",
"o  c #020202",
"O  c #030303",
"+  c #040404",
"@  c #050505",
"#  c #060606",
"$  c #070707",
"%  c #080808",
"&  c #090909",
"*  c #0A0A0A",
"=  c #0B0B0B",
"-  c #0C0C0C",
";  c #0D0D0D",
":  c #0E0E0E",
">  c #0F0F0F",
",  c #101010",
"<  c #111111",
"1  c #121212",
"2  c #131313",
"3  c #141414",
"4  c #151515",
"5  c #161616",
"6  c #171717",
"7  c #181818",
"8  c #191919",
"9  c #1A1A1A",
"0  c #1B1B1B",
"q  c #1C1C1C",
"w  c #1D1D1D",
"e  c #1E1E1E",
"r  c #1F1F1F",
"t  c #202020",
"y  c #212121",
"u  c #222222",
"i  c #242424",
"p  c #252525",
"a  c #262626",
"s  c #272727",
"d  c #282828",
"f  c #292929",
"g  c #2A2A2A",
"h  c #2B2B2B",
"j  c #2C2C2C",
"k  c #2D2D2D",
"l  c #2E2E2E",
"z  c #2F2F2F",
"x  c #303030",
"c  c #313131",
"v  c #323232",
"b  c #333333",
"n  c #343434",
"m  c #353535",
"M  c #363636",
"N  c #373737",
"B  c #393939",
"V  c #3A3A3A",
"C  c #3B3B3B",
"Z  c #3C3C3C",
"A  c #3D3D3D",
"S  c #3E3E3E",
"D  c #3F3F3F",
"F  c #404040",
"G  c #414141",
"H  c #424242",
"J  c #434343",
"K  c #444444",
"L  c #454545",
"P  c #464646",
"I  c #474747",
"U  c #484848",
"Y  c #494949",
"T  c #4A4A4A",
"R  c #4B4B4B",
"E  c #4C4C4C",
"W  c #4D4D4D",
"Q  c #4E4E4E",
"!  c #4F4F4F",
"~  c #505050",
"^  c #515151",
"/  c #525252",
"(  c #535353",
")  c #545454",
"_  c #555555",
"`  c #565656",
"'  c #575757",
"]  c #595959",
"[  c #5A5A5A",
"{  c #5B5B5B",
"}  c #5C5C5C",
"|  c #5D5D5D",
" . c #5E5E5E",
".. c #5F5F5F",
"X. c #606060",
"o. c #616161",
"O. c #626262",
"+. c #636363",
"@. c #646464",
"#. c #656565",
"$. c #666666",
"%. c #676767",
"&. c #686868",
"*. c #696969",
"=. c #6A6A6A",
"-. c #6B6B6B",
";. c #6C6C6C",
":. c #6D6D6D",
">. c #6E6E6E",
",. c #707070",
"<. c #717171",
"1. c #727272",
"2. c #747474",
"3. c #767676",
"4. c #777777",
"5. c #787878",
"6. c #797979",
"7. c #7A7A7A",
"8. c #7C7C7C",
"9. c #7D7D7D",
"0. c #7E7E7E",
"q. c #7F7F7F",
"w. c #808080",
"e. c #818181",
"r. c #828282",
"t. c #838383",
"y. c #848484",
"u. c #858585",
"i. c #868686",
"p. c #878787",
"a. c #888888",
"s. c #898989",
"d. c #8A8A8A",
"f. c #8B8B8B",
"g. c #8C8C8C",
"h. c #8D8D8D",
"j. c #8E8E8E",
"k. c #8F8F8F",
"l. c #909090",
"z. c #919191",
"x. c #939393",
"c. c #959595",
"v. c #969696",
"b. c #979797",
"n. c #989898",
"m. c #999999",
"M. c #9A9A9A",
"N. c #9B9B9B",
"B. c #9C9C9C",
"V. c #9D9D9D",
"C. c #9E9E9E",
"Z. c #A0A0A0",
"A. c #A1A1A1",
"S. c #A2A2A2",
"D. c #A3A3A3",
"F. c #A4A4A4",
"G. c #A6A6A6",
"H. c #A7A7A7",
"J. c #A8A8A8",
"K. c #AAAAAA",
"L. c #ABABAB",
"P. c #ACACAC",
"I. c #ADADAD",
"U. c #AEAEAE",
"Y. c #AFAFAF",
"T. c #B0B0B0",
"R. c #B1B1B1",
"E. c #B3B3B3",
"W. c #B4B4B4",
"Q. c #B5B5B5",
"!. c #B7B7B7",
"~. c #B8B8B8",
"^. c #B9B9B9",
"/. c #BCBCBC",
"(. c #BDBDBD",
"). c #BEBEBE",
"_. c #C0C0C0",
"`. c #C1C1C1",
"'. c #C2C2C2",
"]. c #C3C3C3",
"[. c #C4C4C4",
"{. c #C5C5C5",
"}. c #C6C6C6",
"|. c #C7C7C7",
" X c #C8C8C8",
".X c #C9C9C9",
"XX c #CACACA",
"oX c #CBCBCB",
"OX c #CCCCCC",
"+X c #CDCDCD",
"@X c #CECECE",
"#X c #CFCFCF",
"$X c #D0D0D0",
"%X c #D1D1D1",
"&X c #D2D2D2",
"*X c #D3D3D3",
"=X c #D4D4D4",
"-X c #D5D5D5",
";X c #D6D6D6",
":X c #D7D7D7",
">X c #D8D8D8",
",X c #D9D9D9",
"<X c #DADADA",
"1X c #DBDBDB",
"2X c #DCDCDC",
"3X c #DDDDDD",
"4X c #DEDEDE",
"5X c #DFDFDF",
"6X c #E0E0E0",
"7X c #E1E1E1",
"8X c #E2E2E2",
"9X c #E3E3E3",
"0X c #E4E4E4",
"qX c gray90",
"wX c #E6E6E6",
"eX c #E7E7E7",
"rX c #E8E8E8",
"tX c #E9E9E9",
"yX c #EAEAEA",
"uX c #EBEBEB",
"iX c #ECECEC",
"pX c #EDEDED",
"aX c #EEEEEE",
"sX c #EFEFEF",
"dX c #F0F0F0",
"fX c #F1F1F1",
"gX c #F2F2F2",
"hX c #F3F3F3",
"jX c #F4F4F4",
"kX c #F5F5F5",
"lX c #F6F6F6",
"zX c #F7F7F7",
"xX c #F8F8F8",
"cX c #F9F9F9",
"vX c #FAFAFA",
"bX c #FBFBFB",
"nX c #FCFCFC",
"mX c #FDFDFD",
"MX c #FEFEFE",
"NX c #FFFFFF",
/* pixels */
"                                                                                                                                ",
"                                                                                                                                ",
"                                                                                                                                ",
"                                                          a.'.qX9X^.                                                            ",
"                                                      z.%XzXmXmXmXmXiX|.a.                                                      ",
"                                                  g.=XbXmXmXmXmXmXmXmXmXzX%Xi.                                                  ",
"                                              i.%XzXmXmXmXmXmXqXzX=XqXmXmXmXzX%Xi.                                              ",
"                                          g.%XzXmXbX2X.XbXmX).mXmXm.bXbX).<XbXmXbX=Xg.                                          ",
"                                      m.<XbXmXzX'.0._ 0.bXbXg.mXmX0.iXmXt._ 7.'.fXmXbX<Xb.                                      ",
"                                  A.9XbXmXfX!.3.U n D ).mX'.;.mXmX{ R.mX|.D j h O.!.fXmXbX9XA.                                  ",
"                              I.qXmXmXfXR.^ v t.t.D -.zXfX1.U mXmXB -.fXzX-.q - = 6 _ R.zXmXmXqXI.                              ",
"                          ^.iXmXmXfXI.^ - $ u 7.7.n !.mX!.B j mXmXa v !.mX^.q = = q a 6 ^ I.iXmXmXiX^.                          ",
"                      '.fXmXmXqXF.W 6 q 6 $ = u a | zXfXO.q q mXmXq 6 | fXfX_ $ q ;.t.h X 1 { F.qXmXmXfX|.                      ",
"                  .XiXbXmXqXA._ q = a 3.{ 6 X X - R.mXI.q - 1 mXmX1 = 9 R.mXR.- q -.t.h $ j 7.H ^ m.2XmXbXiX.X                  ",
"                <XuXzXbX2X3.U j 9 = v b.3.q X X W zXfX| h h 9 mXmX- $ = { fXfX^ - q a - X _ qXO.a B $.R.fXbXiX<X                ",
"                qXmXbXbX9Xi.^ j 6 = 1 v a = X 6 !.mXR.B 3.t.v mXmX9 n H h R.mX!.6 X X X X u _ j u B { i.bXmXmXqX                ",
"                .XmXmXmXmXbX2XK.-.n q = $ $ 6 ;.zXfX^ v ;.0.n mXmXB b.K.L ^ fXzX1.6 X $ = 9 n -.A.=XiXbXmXmXmX.X                ",
"                a.zXmXmXmXbXmXmXmXiX%XF.3.| z.uXmX'.u a q j j bXmXn ^ _ n u |.mXuXz.| 3.A.%XiXmXmXmXbXmXbXmXzXa.                ",
"                  %XmXmXR.;.0.K.=XiXmXmXmXbXmXmXzX.X| v 6 6 W bXmXW q u v O..XzXmXmXbXmXmXbXiX=XF.0.;.F.mXmX%X                  ",
"                  g.bXmX1.H h 9 q n $.A.<XbXfX9XbXzX@Xz.$.$.'.mXmX'.$.$.z..XzXbX9XfXbX2XA.$.v q q h L ;.bXbXg.                  ",
"                    <XmX).n q 1 = $ X = D !.mXzXmXbXmXmXmXmXmXmXmXmXmXmXmXmXbXmXzXmX!.D = X X = 1 q n ).mX<X                    ",
"                    b.bXzXO.6 q D v - X $ U fXbX^.-.g.^.2XiXmXmXmXbXiX<X^.g.-.^.bXfXU X X X X X = 1 $.zXbXb.                    ",
"                      2XmXK.6 n K.g.a X X a iXmXO.q 9 q v { @XmXmX'._ j q 9 q O.bXiXh X X $ - = $ 6 F.mX2X                      ",
"                      A.mXiXW q { U 1 X X 6 9XmX_ q D B 1 X | bXmX^ X = u q 1 ^ bX9X9 X X u O.D - W iXmXA.                      ",
"                        qXmXC.- - - = X X = '.mX3.v F.C.h X j bXmXa X a 7.$.9 1.mX'.- X $ D ).0.u C.mXqX                        ",
"                        K.mX9Xn X - v n 1 X a.mXA.9 ^ W 6 X 6 bXbX6 X h g.7.u C.mXg.X X X 6 H h B 9XmXK.                        ",
"                          uXmX0.$ a g.A.v X _ bX@X1 = = X X = bXmX= X 1 h a 6 @XmX_ X X X X X $ t.mXuX                          ",
"                          !.mX@Xq 6 _ | q X h iXqX9 X X X X X mXmX$ 9 L q $ q qXiXj - = X X X u @XmX^.                          ",
"                            fXbX-.$ - 1 $ X 6 2XzXn X X X X X mXmX$ ^ =XW $ n fX2Xn O.D - X X $.bXiX                            ",
"                            '.mX).6 X X X X = ).mX-.X X $ $ $ mXmX$ v i.v X -.mX).L ).t.9 X 6 ).mX'.                            ",
"                              zXfX{ X X X X X i.mXA.$ - B ^ q mXmXX = 9 = $ A.mXa.9 L j = X { zXzX                              ",
"                              @XmX!.- X X X X ^ zX%X1 q a..XH mXmXX X X X 1 %XbXW X $ X X - R.mX@X                              ",
"                              t.zXzX^ X X X X h uXqXq = v L 9 mXmX- v B 1 u qXuXh X X X X ^ zXzXi.                              ",
"                                =XmXR.- X X X 6 <XzXB X $ $ X mXmXa z.F.n B zX<Xu h q = - R.mX=X                                ",
"                                z.bXfX^ $ 1 9 1 !.bX;.$ $ - $ mXmX6 W { q 1.mXR.v g.-.9 ^ zXbXg.                                ",
"                                  <XmXI.u { ;.u 0.mXF.1 D { q mXmX$ - - = F.mX0.h t.O.u I.mX<X                                  ",
"                                  m.mXfXO.0.m.v U zX%Xj i.'.D mXmXX X X 1 %XzXU = a 9 ^ fXbXC.                                  ",
"                                    9XmXF.v v - a uXqXh j H 6 mXmX- q - a qXuXa X X = F.mX9X                                    ",
"                                    F.mXuXD X X 6 =XzXH X $ $ mXmXv t.B L zX=X6 X X D qXmXF.                                    ",
"                                      uXmXg.$ X $ I.mX3.X X X mXmXU |.| 7.mXK.$ X $ g.mXuX                                      ",
"                                      R.mX=Xh X X 3.mXI.= X X mXmX9 H a I.mX7.X X h =XmXR.                                      ",
"                                        iXmX3.$ X H zX=X6 X $ mXmX$ X 9 =XfXH X $ 1.bXiX                                        ",
"                                        ).mX'.q X u uXqXh X $ mXmX$ X h qXuXu X q |.mX).                                        ",
"                                          fXzX$.$ 1 %XzXU X = mXmX= X W zX=X1 $ $.zXfX                                          ",
"                                          .XmX^.9 = F.mX0.$ = mXmX= $ t.mXF.$ 9 ^.mX.X                                          ",
"                                          0.zXzX| - 1.bX!.- = mXmX$ - R.mX1.- { fXzXt.                                          ",
"                                            %XmXR.a L fX=Xq $ mXmX= q <XfXL a !.mX%X                                            ",
"                                            a.bXfXO.n uXiXn = mXmX= n uXqXB | fXbXa.                                            ",
"                                              <XmXK.D =XzX{ 1 mXmX- { zX=XD I.mX<X                                              ",
"                                              b.bXfX$.^.mXi.6 mXmX6 i.mX!.$.iXbXb.                                              ",
"                                                9XmXF.C.mX^.a mXmXu ^.mXC.F.mX9X                                                ",
"                                                A.mXfXm.mX<XD mXmXn <XmXC.iXmXA.                                                ",
"                                                  uXmXR.mXuX| mXmX_ uXmXI.mXuX                                                  ",
"                                                  I.mXiXfXzX0.mXmX7.zXzXuXmXI.                                                  ",
"                                                    iXmX2XmXF.mXmXm.mXqXmXiX                                                    ",
"                                                    ^.mXzXzXmXmXmXmXmXzXmX^.                                                    ",
"                                                      iXmXbXmXmXmXmXbXmXiX                                                      ",
"                                                      '.mXmXmXmXmXmXmXmX).                                                      ",
"                                                        qXmXmXmXmXmXmX9X                                                        ",
"                                                        a.uXmXmXmXmXqX                                                          ",
"                                                          g.2XzXzX=X                                                            ",
"                                                              F.C.                                                              ",
"                                                                                                                                ",
"                                                                                                                                "
};
