/* XPM */
static char *_1387c970bd447f5efb13a664cf21caekI5RtOivisHk037N[] = {
/* columns rows colors chars-per-pixel */
"64 64 11 1 ",
"  c None",
". c black",
"X c #110A12",
"o c #281629",
"O c #402442",
"+ c #5E3461",
"@ c #713F75",
"# c #8F5094",
"$ c #AF62B5",
"% c #CD73D4",
"& c #F78AFF",
/* pixels */
"                                                                ",
"                                                                ",
"                                                                ",
"                                                                ",
"                                                                ",
"                               ..                               ",
"                               ..                               ",
"                               ..                               ",
"                            ...XX...                            ",
"                            ...XX...                            ",
"                            ...XX...                            ",
"                         ...XXXooXXX...                         ",
"                         ...XXXooXXX...                         ",
"                         ...XXXooXXX...                         ",
"                      ...XXXoooOOoooXXX...                      ",
"                      ...XXXoooOOoooXXX...                      ",
"                      ...XXXoooOOoooXXX...                      ",
"                   ...XXXoooOOO++OOOoooXXX...                   ",
"                   ...XXXoooOOO++OOOoooXXX...                   ",
"                 ..XXXoooOOO+++@@+++OOOoooXXX..                 ",
"                 ..XXXoooOOO+++@@+++OOOoooXXX..                 ",
"                 ..XXXoooOOO+++@@+++OOOoooXXX..                 ",
"              ...XXoooOOO+++@@@##@@@+++OOOoooXX...              ",
"              ...XXoooOOO+++@@@##@@@+++OOOoooXX...              ",
"              ...XXoooOOO+++@@@##@@@+++OOOoooXX...              ",
"           ...XXXooOOO+++@@@###$$###@@@+++OOOooXXX...           ",
"           ...XXXooOOO+++@@@###$$###@@@+++OOOooXXX...           ",
"           ...XXXooOOO+++@@@###$$###@@@+++OOOooXXX...           ",
"        ...XXXoooOO+++@@@###$$$%%$$$###@@@+++OOoooXXX...        ",
"        ...XXXoooOO+++@@@###$$$%%$$$###@@@+++OOoooXXX...        ",
"        ...XXXoooOO+++@@@###$$$%%$$$###@@@+++OOoooXXX...        ",
"     ...XXXoooOOO++@@@###$$$%%%&&%%%$$$###@@@++OOOoooXXX...     ",
"     ...XXXoooOOO++@@@###$$$%%%&&%%%$$$###@@@++OOOoooXXX...     ",
"        ...XXXoooOO+++@@@###$$$%%$$$###@@@+++OOoooXXX...        ",
"        ...XXXoooOO+++@@@###$$$%%$$$###@@@+++OOoooXXX...        ",
"        ...XXXoooOO+++@@@###$$$%%$$$###@@@+++OOoooXXX...        ",
"           ...XXXooOOO+++@@@###$$###@@@+++OOOooXXX...           ",
"           ...XXXooOOO+++@@@###$$###@@@+++OOOooXXX...           ",
"           ...XXXooOOO+++@@@###$$###@@@+++OOOooXXX...           ",
"              ...XXoooOOO+++@@@##@@@+++OOOoooXX...              ",
"              ...XXoooOOO+++@@@##@@@+++OOOoooXX...              ",
"              ...XXoooOOO+++@@@##@@@+++OOOoooXX...              ",
"                 ..XXXoooOOO+++@@+++OOOoooXXX..                 ",
"                 ..XXXoooOOO+++@@+++OOOoooXXX..                 ",
"                 ..XXXoooOOO+++@@+++OOOoooXXX..                 ",
"                   ...XXXoooOOO++OOOoooXXX...                   ",
"                   ...XXXoooOOO++OOOoooXXX...                   ",
"                      ...XXXoooOOoooXXX...                      ",
"                      ...XXXoooOOoooXXX...                      ",
"                      ...XXXoooOOoooXXX...                      ",
"                         ...XXXooXXX...                         ",
"                         ...XXXooXXX...                         ",
"                         ...XXXooXXX...                         ",
"                            ...XX...                            ",
"                            ...XX...                            ",
"                            ...XX...                            ",
"                               ..                               ",
"                               ..                               ",
"                               ..                               ",
"                                                                ",
"                                                                ",
"                                                                ",
"                                                                ",
"                                                                "
};
