/* XPM */
static char *_976b93a8b364e98e16559ff8562b8eeoEVUU77RnRGkHXnX[] = {
/* columns rows colors chars-per-pixel */
"64 64 12 1 ",
"  c #333C57",
". c #343D58",
"X c #37415C",
"o c #42506B",
"O c #42516B",
"+ c #4E617B",
"@ c #4E617C",
"# c #4F637D",
"$ c #546A84",
"% c #556A85",
"& c #556B85",
"* c #566C86",
/* pixels */
"                                                                ",
"                                                                ",
"    .O+%************************************************%+O.    ",
"   X#******************************************************@X   ",
"  .@********************************************************#.  ",
"  O**********************************************************O  ",
"  @**********************************************************+  ",
"  %***********************************************************  ",
"  ************************************************************  ",
"  ************************************************************  ",
"  ************************************************************  ",
"  ************************************************************  ",
"  ************************************************************  ",
"  ************************************************************  ",
"  ************************************************************  ",
"  ************************************************************  ",
"  ************************************************************  ",
"  ************************************************************  ",
"  ************************************************************  ",
"  ************************************************************  ",
"  ************************************************************  ",
"  ************************************************************  ",
"  ************************************************************  ",
"  ************************************************************  ",
"  ************************************************************  ",
"  ************************************************************  ",
"  ************************************************************  ",
"  ************************************************************  ",
"  ************************************************************  ",
"  ************************************************************  ",
"  ************************************************************  ",
"  ************************************************************  ",
"  ************************************************************  ",
"  ************************************************************  ",
"  ************************************************************  ",
"  ************************************************************  ",
"  ************************************************************  ",
"  ************************************************************  ",
"  ************************************************************  ",
"  ************************************************************  ",
"  ************************************************************  ",
"  ************************************************************  ",
"  ************************************************************  ",
"  ************************************************************  ",
"  ************************************************************  ",
"  ************************************************************  ",
"  ************************************************************  ",
"  ************************************************************  ",
"  ************************************************************  ",
"  ************************************************************  ",
"  ************************************************************  ",
"  ************************************************************  ",
"  ************************************************************  ",
"  ************************************************************  ",
"  ************************************************************  ",
"  ************************************************************  ",
"  %**********************************************************$  ",
"  @**********************************************************@  ",
"  O**********************************************************O  ",
"  .#********************************************************@.  ",
"   X#******************************************************#X   ",
"    .O@$************************************************$@O..   ",
"                                                                ",
"                                                                "
};
